<svg width="40" height="40" viewBox="0 0 40 40" fill="none" xmlns="http://www.w3.org/2000/svg">
<path d="M31.464 30.9797C31.464 32.1999 30.6261 33.6494 28.5323 34.9016C26.4792 36.1294 23.5136 36.9536 20.1307 36.9536C16.7478 36.9536 13.7821 36.1294 11.7291 34.9016C9.63526 33.6494 8.79736 32.1999 8.79736 30.9797C8.79736 29.7596 9.63526 28.31 11.7291 27.0578C13.7821 25.83 16.7478 25.0059 20.1307 25.0059C23.5136 25.0059 26.4792 25.83 28.5323 27.0578C30.6261 28.31 31.464 29.7596 31.464 30.9797Z" stroke="#D9D9D9" stroke-width="4"/>
<path d="M25.7123 16.0793C25.7123 19.3481 23.01 22.0532 19.6077 22.0532C16.2055 22.0532 13.5032 19.3481 13.5032 16.0793C13.5032 12.8106 16.2055 10.1055 19.6077 10.1055C23.01 10.1055 25.7123 12.8106 25.7123 16.0793Z" stroke="#D9D9D9" stroke-width="4"/>
<circle cx="20" cy="20" r="18" stroke="#D9D9D9" stroke-width="4"/>
</svg>
