<svg width="40" height="34" viewBox="0 0 40 34" fill="none" xmlns="http://www.w3.org/2000/svg">
<path d="M5 18.9062H35V29.9062C35 30.4585 34.5523 30.9062 34 30.9062H6C5.44772 30.9062 5 30.4585 5 29.9062V18.9062Z" fill="#FFD260"/>
<path d="M5 10.9062C5 10.354 5.44772 9.90625 6 9.90625H34C34.5523 9.90625 35 10.354 35 10.9062V16.9062H5V10.9062Z" fill="#FFD260"/>
<path d="M14 5.90625C14 5.35397 14.4477 4.90625 15 4.90625C15.5523 4.90625 16 5.35397 16 5.90625V9.90625H14V5.90625Z" fill="#FFD260"/>
<path d="M24 5.90625C24 5.35397 24.4477 4.90625 25 4.90625C25.5523 4.90625 26 5.35397 26 5.90625V9.90625H24V5.90625Z" fill="#FFD260"/>
<path d="M14 5.90625C14 5.35397 14.4477 4.90625 15 4.90625H25C25.5523 4.90625 26 5.35397 26 5.90625V6.90625H14V5.90625Z" fill="#FFD260"/>
<path d="M11.7154 27.8999C11.3203 27.514 11.3248 26.8931 11.7255 26.513L24.1651 14.7142L25.9094 16.418L13.4699 28.2168C13.0692 28.5968 12.4241 28.5921 12.029 28.2062L11.7154 27.8999Z" fill="#EDFF1D"/>
<path d="M25.7704 12.3567C26.0277 12.6052 26.027 13.0074 25.7689 13.255L23.3189 15.6051L22.3871 14.7052L24.8371 12.3551C25.0952 12.1074 25.5131 12.1082 25.7704 12.3567Z" fill="#EDFF1D"/>
<path d="M24.6441 12.3956C24.7161 12.4651 24.7159 12.5776 24.6437 12.6469L22.9193 14.301C22.8471 14.3702 22.7302 14.37 22.6583 14.3005C22.5863 14.231 22.5865 14.1185 22.6587 14.0493L24.3831 12.3952C24.4553 12.3259 24.5722 12.3261 24.6441 12.3956Z" fill="#EDFF1D"/>
<path d="M28.6244 15.2806C28.7175 15.3705 28.7173 15.516 28.6238 15.6056L26.5982 17.5486C26.5048 17.6382 26.3536 17.638 26.2605 17.5481C26.1674 17.4581 26.1677 17.3126 26.2611 17.223L28.2867 15.28C28.3801 15.1904 28.5313 15.1906 28.6244 15.2806Z" fill="#EDFF1D"/>
<path d="M28.4255 15.9129C28.5211 16.0052 28.5209 16.1547 28.425 16.2467L27.1354 17.4836C27.0395 17.5756 26.8843 17.5754 26.7887 17.483C26.6931 17.3907 26.6933 17.2413 26.7892 17.1493L28.0788 15.9123C28.1747 15.8203 28.3299 15.8206 28.4255 15.9129Z" fill="#EDFF1D"/>
<path d="M23.9841 12.786C24.0797 12.8783 24.0795 13.0277 23.9836 13.1197L23.108 13.9596C23.012 14.0516 22.8568 14.0513 22.7612 13.959C22.6656 13.8667 22.6659 13.7173 22.7618 13.6253L23.6374 12.7854C23.7333 12.6934 23.8885 12.6936 23.9841 12.786Z" fill="#EDFF1D"/>
<path d="M28.5341 14.4758C28.7914 14.7243 28.7907 15.1265 28.5326 15.3742L26.0825 17.7243L25.1507 16.8243L27.6007 14.4742C27.8589 14.2266 28.2768 14.2273 28.5341 14.4758Z" fill="#EDFF1D"/>
<path d="M28.6906 13.9221C28.8324 14.0589 28.832 14.2805 28.6898 14.4169L26.0298 16.9684L25.5165 16.4727L28.1765 13.9212C28.3187 13.7848 28.5489 13.7852 28.6906 13.9221Z" fill="#EDFF1D"/>
<path d="M26.4953 12.1603C26.6371 12.2972 26.6367 12.5188 26.4945 12.6552L23.8345 15.2067L23.3212 14.711L25.9812 12.1595C26.1234 12.0231 26.3536 12.0234 26.4953 12.1603Z" fill="#EDFF1D"/>
<path d="M25.261 16.668L26.0304 17.6944L24.383 17.6944L25.261 16.668Z" fill="#EDFF1D"/>
<path d="M24.7615 14.2028L24.7609 15.4322L24.2119 14.7276L24.7615 14.2028Z" fill="#EDFF1D"/>
<path d="M26.3592 15.7884L25.261 15.7884L25.8096 16.3131L26.3592 15.7884Z" fill="#EDFF1D"/>
<path d="M22.3923 14.7302L23.3075 15.6137L22.5887 16.3164L22.3923 14.7302Z" fill="#EDFF1D"/>
</svg>
