<svg enable-background="new 0 0 532.2 97.9" viewBox="0 0 532.2 97.9" xmlns="http://www.w3.org/2000/svg"><g fill="current"><path d="m122.3 54.2v-.2c0-14.7 11.1-26.7 26.9-26.7 9.7 0 15.6 3.2 20.4 8l-7.2 8.3c-4-3.6-8-5.8-13.2-5.8-8.7 0-15 7.2-15 16.1v.1c0 8.8 6.1 16.2 15 16.2 5.9 0 9.5-2.4 13.6-6l7.2 7.3c-5.3 5.7-11.2 9.2-21.2 9.2-15.2 0-26.5-11.7-26.5-26.5z"/><path d="m203.1 27.8h10.5l22.1 52h-11.9l-4.7-11.6h-21.8l-4.7 11.6h-11.6zm12 30.4-6.9-16.7-6.9 16.7z"/><path d="m238.3 28.2h12.5l13.5 36.4 13.5-36.4h12.2l-20.9 52h-10z"/><path d="m298.8 54.2v-.2c0-14.7 11.6-26.7 27.5-26.7s27.4 11.9 27.4 26.5v.2c0 14.7-11.6 26.7-27.5 26.7s-27.4-11.9-27.4-26.5zm43 0v-.2c0-8.8-6.5-16.2-15.6-16.2s-15.5 7.2-15.5 16.1v.1c0 8.8 6.5 16.2 15.6 16.2 9.2 0 15.5-7.2 15.5-16z"/><path d="m380 38.7h-15.7v-10.5h42.8v10.5h-15.7v41.1h-11.4z"/><path d="m422.2 28.2h38.9v10.1h-27.7v10.5h24.3v10.1h-24.3v10.8h28v10.1h-39.3v-51.6z"/><path d="m475.7 54.2v-.2c0-14.7 11.1-26.7 26.9-26.7 9.7 0 15.6 3.2 20.4 8l-7.2 8.3c-4-3.6-8-5.8-13.2-5.8-8.7 0-15 7.2-15 16.1v.1c0 8.8 6.1 16.2 15 16.2 5.9 0 9.5-2.4 13.6-6l7.2 7.3c-5.3 5.7-11.2 9.2-21.2 9.2-15.2 0-26.5-11.7-26.5-26.5z"/><path d="m522 22.9c0-2.8 2.3-5.2 5.1-5.2 2.9 0 5.1 2.3 5.1 5.1 0 2.8-2.3 5.2-5.1 5.2-2.9 0-5.1-2.3-5.1-5.1zm9.1-.1c0-2.2-1.7-4.1-4-4.1s-4 1.9-4 4.1c0 2.2 1.7 4 4 4 2.3.1 4-1.7 4-4zm-6.2-2.8h2.6c1.3 0 2.3.6 2.3 1.8 0 .9-.4 1.4-1.1 1.7l1.3 1.9h-1.8l-1.1-1.6h-.6v1.6h-1.5v-5.4zm2.5 2.6c.5 0 .8-.3.8-.6 0-.4-.3-.6-.8-.6h-1v1.3h1z"/><path d="m65 77.9c-5.1 0-10.2 0-15.3 0-4.2 0-8.3-.7-12.1-2.4-2.6-1.1-5-2.6-7.2-4.4-3.6-3.1-6.3-7-8.2-11.4-1.2-2.8-2-5.8-2-8.9 0-2.1-.1-4.2.2-6.3.5-3 1.4-5.9 2.8-8.7 1.3-2.6 3-5 5-7.1 3.5-3.6 7.7-6.1 12.4-7.6 2.6-.8 5.3-1.1 8-1.3 1.7-.1 3.3.2 4.9.4 2.8.4 5.4 1.3 8 2.5 2.2 1 4.3 2.4 6.1 4 1.6 1.4 3.1 3 4.3 4.7 1.9 2.5 3.4 5.3 4.4 8.2.9 2.4 1.3 5 1.4 7.6.1 2.5.1 5-.4 7.5-.2 1.1-.6 2.2-1 3.3-.1.1-.2.4-.4.8h8.7c.1-.5.3-1.1.4-1.6.5-2.2.8-4.5.8-6.7 0-3 0-6-.6-8.9s-1.5-5.7-2.7-8.5c-1.3-2.9-3.1-5.6-5.1-8-1.9-2.3-4.1-4.4-6.6-6.2-2.1-1.6-4.4-3-6.8-4-2.1-.9-4.2-1.8-6.5-2.2-1.5-.3-3-.8-4.6-.8-4.3-.2-8.6-.4-12.8.9-1.5.4-3 .8-4.4 1.3-3.9 1.6-7.6 3.5-10.7 6.4-3.2 2.8-6 5.9-8.1 9.6-1.5 2.6-2.7 5.2-3.5 8.1-.6 2.1-1.1 4.3-1.4 6.5-.3 2.7-.3 5.4 0 8.1.3 3 1 6 2 8.8.7 1.7 1.5 3.5 2.4 5.1 2.2 4.1 5.1 7.7 8.7 10.6 4.2 3.4 8.9 5.9 14.1 7.3 3.2.8 6.5 1.2 9.8 1.3 3.9.1 7.8 0 11.7 0 2.6 0 5.2-.1 7.8-.1h28.4v-8z"/><path d="m65 89.8c-2.3 0-4.7 0-7 0-2.4 0-4.8 0-7.2 0-4.3.1-8.5-.4-12.7-1.6-2.2-.6-4.4-1.5-6.5-2.4-3.3-1.5-6.2-3.5-9-5.8-3.6-2.9-6.4-6.5-8.8-10.5-2-3.4-3.4-6.9-4.4-10.8-.8-3-1.1-6.1-1.2-9.2-.1-3.5.4-7.2 1.3-10.7.7-2.9 1.8-5.7 3.1-8.3 1.7-3.4 3.9-6.5 6.5-9.2 2.6-2.8 5.6-5.3 8.9-7.2 3.6-2.1 7.3-3.7 11.4-4.7 2.7-.7 5.5-1.1 8.3-1.2 4.4-.2 8.6.4 12.8 1.6 2.7.8 5.3 1.9 7.8 3.2 6.3 3.4 11.4 8 15.2 14 2.4 3.8 4.2 7.9 5.3 12.4 1.3 5.5 1.4 11.3.6 16.8-.1.9-.3 1.8-.5 2.7v.2h8.1c0-.2.1-.4.1-.5.1-.7.4-1.4.5-2.1 1.3-7.1.4-14.6-1.6-21.4-.7-2.5-1.6-4.9-2.7-7.2-1.7-3.8-4-7.2-6.7-10.4-2.5-3-5.4-5.7-8.6-8.1-3.4-2.5-7.1-4.6-11.1-6.1-2.9-1.1-5.9-2-9-2.6-3.1-.6-6.3-.8-9.5-.7-2.4.1-4.8.3-7.1.6-4 .5-7.8 1.7-11.5 3.3-4 1.8-7.8 3.9-11.2 6.7-2.7 2.2-5.2 4.6-7.4 7.2-1.5 1.8-2.8 3.8-4 5.8-2.1 3.3-3.7 7-4.9 10.7-.9 2.8-1.5 5.7-1.8 8.7-.5 3.6-.7 7.2-.2 10.9.4 2.9.9 5.8 1.7 8.7.9 3.1 2.1 6 3.5 8.8 1.8 3.6 4.1 6.8 6.8 9.8 3.8 4.3 8.3 7.9 13.3 10.7 2.5 1.4 5.3 2.5 8.1 3.4 3.1 1 6.1 1.8 9.3 2.1 2.4.2 4.7.4 7.1.4 5.4.1 10.8 0 16.1 0 1.8 0 3.6 0 5.5-.1h25.6v-8z"/><path d="m67.9 65.5c-6.4 0-12.8-.1-19.3 0-3 0-5.8-.9-8.3-2.4-2.2-1.3-4.1-3.2-5.5-5.4-.9-1.5-1.6-3-2-4.8-.2-1-.3-1.9-.4-2.9-.2-2 0-4 .6-6 1.2-3.6 3.4-6.5 6.6-8.7 1.4-1 3-1.8 4.7-2.2 4.7-1.4 9.8-.6 13.8 2.2 1.1.7 2 1.6 2.9 2.5 3.3 3.6 4.8 8.6 4.3 13.5-.2 1.9-.8 3.8-1.6 5.5-.3.5-1 1.5-1.6 2.3h9.2c.2-.5.4-1.1.6-1.6.5-1.5 1.1-3 1.4-4.5.9-4.5.1-9-1.6-13.2-.9-2.2-2.1-4.3-3.7-6.2-2.5-3-5.4-5.4-8.9-7s-7.1-2.4-11-2.3c-3 .1-5.9.6-8.6 1.8-3.4 1.4-6.5 3.4-9 6.2-2.1 2.3-3.8 4.9-4.9 7.9-.9 2.3-1.4 4.7-1.5 7.2-.2 4.4.5 8.6 2.5 12.6 2.2 4.3 5.3 7.7 9.4 10.2 2 1.2 4.1 2.2 6.4 2.7 2.5.6 5 .9 7.6.8 3.9-.1 7.8 0 11.7 0 1.7 0 3.5 0 5.2-.1h30.1v-8h-27c-.7-.1-1.4-.1-2.1-.1z"/></g></svg>